<svg xmlns="http://www.w3.org/2000/svg" width="36" height="36" viewBox="0 0 36 36">
  <g id="Group_159" data-name="Group 159" transform="translate(-2588 -695.9)">
    <path id="Path_50" data-name="Path 50" d="M35.465,22.742A18,18,0,1,1,22.33.943l.049.013A18,18,0,0,1,35.465,22.742Z" transform="translate(2588.001 695.49)" fill="#f7931a"/>
    <path id="Path_51" data-name="Path 51" d="M230.325,163.6c-.562,2.25-3.993,1.1-5.106.821l.984-3.936c1.1.27,4.685.787,4.105,3.115Zm-.613,6.361c-.607,2.451-4.735,1.125-6.074.792l1.085-4.347C226.062,166.747,230.347,167.405,229.712,169.965Zm4.5-6.327c.354-2.4-1.468-3.683-3.936-4.538l.81-3.245-2-.495-.787,3.161c-.517-.129-1.052-.253-1.58-.371l.787-3.194-1.974-.495-.81,3.245-1.26-.281-2.727-.681-.523,2.109s1.462.337,1.434.36a1.052,1.052,0,0,1,.922,1.125l-.922,3.695a1.062,1.062,0,0,1,.2.068l-.208-.056-1.288,5.18a.72.72,0,0,1-.9.467h0c0,.028-1.44-.354-1.44-.354l-.979,2.25,2.57.636,1.406.366-.815,3.279,1.974.495.81-3.245q.8.219,1.569.4l-.8,3.256,1.974.489.815-3.273c3.374.636,5.9.382,6.968-2.665.86-2.452-.045-3.864-1.816-4.786a3.145,3.145,0,0,0,2.525-2.9Z" transform="translate(2379.758 547.677)" fill="#fff"/>
  </g>
</svg>
