<svg xmlns="http://www.w3.org/2000/svg" width="62.312" height="68.053" viewBox="0 0 62.312 68.053">
  <g id="hearts" transform="translate(-1470.614 -900.575)" opacity="0.9">
    <g id="Group_123" data-name="Group 123" transform="translate(1518.458 901.086)" opacity="0.8">
      <path id="Path_15" data-name="Path 15" d="M70.886,45.825a3.56,3.56,0,0,1-2.148-.854,11.994,11.994,0,0,1-3.26-4.008c-.559-1.211-.711-2.8.791-3.344,1.768-.639,2.567.926,3.784,1.92.6.494,1.077.183,1.558-.465.717-.968,1.878-2.194,2.937-1.3a2.542,2.542,0,0,1,.438,2.669,11.735,11.735,0,0,1-2.544,4.346,2.565,2.565,0,0,1-1.557,1.033" transform="translate(-65.082 -37.466)" fill="#fff" stroke="rgba(0,0,0,0)" stroke-miterlimit="10" stroke-width="1" fill-rule="evenodd"/>
    </g>
    <g id="Group_124" data-name="Group 124" transform="matrix(0.921, 0.391, -0.391, 0.921, 1499.953, 904.486)" opacity="0.5">
      <path id="Path_15-2" data-name="Path 15" d="M7.906,11.387A4.85,4.85,0,0,1,4.98,10.225,16.339,16.339,0,0,1,.54,4.764C-.221,3.114-.428.949,1.618.209c2.409-.87,3.5,1.262,5.154,2.616.824.674,1.467.25,2.123-.634C9.872.873,11.454-.8,12.9.425c1.074.91.9,2.4.6,3.636a15.986,15.986,0,0,1-3.466,5.92,3.494,3.494,0,0,1-2.121,1.407" transform="translate(0 0)" fill="#fff" stroke="rgba(0,0,0,0)" stroke-miterlimit="10" stroke-width="1" fill-rule="evenodd"/>
    </g>
    <g id="Group_127" data-name="Group 127" transform="matrix(0.998, -0.07, 0.07, 0.998, 1483.291, 909.907)">
      <path id="Path_15-3" data-name="Path 15" d="M3.8,5.477A2.333,2.333,0,0,1,2.4,4.918,7.859,7.859,0,0,1,.26,2.292C-.106,1.5-.206.456.778.1,1.937-.318,2.46.708,3.257,1.359c.4.324.706.12,1.021-.3C4.748.42,5.509-.383,6.2.2A1.665,1.665,0,0,1,6.49,1.953,7.689,7.689,0,0,1,4.823,4.8a1.681,1.681,0,0,1-1.02.677" transform="translate(0 0)" fill="#fff" stroke="rgba(0,0,0,0)" stroke-miterlimit="10" stroke-width="1" fill-rule="evenodd"/>
    </g>
    <g id="Group_132" data-name="Group 132" transform="translate(1508.16 934.528) rotate(-47)">
      <path id="Path_15-4" data-name="Path 15" d="M6.186,9.125A3.744,3.744,0,0,1,3.9,8.193,13.036,13.036,0,0,1,.422,3.818C-.173,2.5-.335.76,1.266.168,3.15-.53,4,1.179,5.3,2.264c.645.54,1.148.2,1.661-.508C7.724.7,8.961-.638,10.09.34c.841.729.707,1.927.467,2.913A12.883,12.883,0,0,1,7.846,8a2.731,2.731,0,0,1-1.66,1.128" transform="translate(0 0)" fill="#fff" stroke="rgba(0,0,0,0)" stroke-miterlimit="10" stroke-width="1" fill-rule="evenodd"/>
    </g>
    <g id="Group_131" data-name="Group 131" transform="matrix(0.998, -0.07, 0.07, 0.998, 1473.103, 932.313)">
      <path id="Path_15-5" data-name="Path 15" d="M3.8,5.477A2.333,2.333,0,0,1,2.4,4.918,7.859,7.859,0,0,1,.26,2.292C-.106,1.5-.206.456.778.1,1.937-.318,2.46.708,3.257,1.359c.4.324.706.12,1.021-.3C4.748.42,5.509-.383,6.2.2A1.665,1.665,0,0,1,6.49,1.953,7.689,7.689,0,0,1,4.823,4.8a1.681,1.681,0,0,1-1.02.677" transform="translate(0 0)" fill="#fff" stroke="rgba(0,0,0,0)" stroke-miterlimit="10" stroke-width="1" fill-rule="evenodd"/>
    </g>
    <g id="Group_128" data-name="Group 128" transform="matrix(0.974, 0.225, -0.225, 0.974, 1520.896, 918.261)" opacity="0.9">
      <path id="Path_15-6" data-name="Path 15" d="M3.8,5.477A2.333,2.333,0,0,1,2.4,4.918,7.859,7.859,0,0,1,.26,2.292C-.106,1.5-.206.456.778.1,1.937-.318,2.46.708,3.257,1.359c.4.324.706.12,1.021-.3C4.748.42,5.509-.383,6.2.2A1.665,1.665,0,0,1,6.49,1.953,7.689,7.689,0,0,1,4.823,4.8a1.681,1.681,0,0,1-1.02.677" transform="translate(0 0)" fill="#fff" stroke="rgba(0,0,0,0)" stroke-miterlimit="10" stroke-width="1" fill-rule="evenodd"/>
    </g>
    <g id="Group_130" data-name="Group 130" transform="matrix(0.974, -0.225, 0.225, 0.974, 1500.495, 957.309)" opacity="0.9">
      <path id="Path_15-7" data-name="Path 15" d="M3.8,5.477A2.333,2.333,0,0,1,2.4,4.918,7.859,7.859,0,0,1,.26,2.292C-.106,1.5-.206.456.778.1,1.937-.318,2.46.708,3.257,1.359c.4.324.706.12,1.021-.3C4.748.42,5.509-.383,6.2.2A1.665,1.665,0,0,1,6.49,1.953,7.689,7.689,0,0,1,4.823,4.8a1.681,1.681,0,0,1-1.02.677" transform="translate(0 0)" fill="#fff" stroke="rgba(0,0,0,0)" stroke-miterlimit="10" stroke-width="1" fill-rule="evenodd"/>
    </g>
    <g id="Group_129" data-name="Group 129" transform="translate(1488.96 929.672) rotate(-21)" opacity="0.8">
      <path id="Path_15-8" data-name="Path 15" d="M6.123,8.819a3.756,3.756,0,0,1-2.266-.9A12.654,12.654,0,0,1,.418,3.69C-.171,2.412-.332.735,1.253.162c1.866-.674,2.708.977,3.992,2.026.638.522,1.136.193,1.644-.491C7.646.676,8.871-.617,9.988.329a2.682,2.682,0,0,1,.462,2.816A12.381,12.381,0,0,1,7.766,7.729a2.706,2.706,0,0,1-1.643,1.09" transform="translate(0 0)" fill="#fff" stroke="rgba(0,0,0,0)" stroke-miterlimit="10" stroke-width="1" fill-rule="evenodd"/>
    </g>
    <g id="Group_125" data-name="Group 125" transform="matrix(0.996, -0.087, 0.087, 0.996, 1506.922, 942.932)" opacity="0.8">
      <path id="Path_15-9" data-name="Path 15" d="M13.737,19.786a8.427,8.427,0,0,1-5.084-2.02A28.389,28.389,0,0,1,.938,8.278C-.384,5.411-.744,1.649,2.811.364,7-1.148,8.887,2.556,11.767,4.909c1.431,1.17,2.55.434,3.688-1.1,1.7-2.29,4.446-5.192,6.952-3.07,1.867,1.581,1.57,4.179,1.037,6.317-.955,3.829-3.552,7.284-6.021,10.285-.792.962-2.225,2.374-3.686,2.445" transform="translate(0 0)" fill="#fff" stroke="rgba(0,0,0,0)" stroke-miterlimit="10" stroke-width="1" fill-rule="evenodd"/>
    </g>
    <g id="Group_126" data-name="Group 126" transform="translate(1472.451 951.75) rotate(5)" opacity="0.85">
      <path id="Path_15-10" data-name="Path 15" d="M10.3,14.831a6.316,6.316,0,0,1-3.811-1.514A21.28,21.28,0,0,1,.7,6.2C-.288,4.056-.558,1.236,2.107.273,5.244-.861,6.662,1.916,8.82,3.68c1.073.877,1.911.325,2.765-.826,1.273-1.717,3.333-3.892,5.211-2.3,1.4,1.185,1.177,3.132.778,4.735-.716,2.87-2.662,5.46-4.513,7.71A4.551,4.551,0,0,1,10.3,14.831" transform="translate(0 0)" fill="#fff" stroke="rgba(0,0,0,0)" stroke-miterlimit="10" stroke-width="1" fill-rule="evenodd"/>
    </g>
  </g>
</svg>
